<svg version="1.1" xmlns="http://www.w3.org/2000/svg" xmlns:xlink="http://www.w3.org/1999/xlink" width="1560" height="804"><defs/><g><path fill="none" stroke="#02063B" paint-order="fill stroke markers" d=" M 20 419.6629280002868 L 21 420.4613699488076 L 22 421.24767490949154 L 23 422.0213259448756 L 24 422.78181443651863 L 25 423.5286404193801 L 26 424.2613129105105 L 27 424.97935023183624 L 28 425.68228032682737 L 29 426.36964107084003 L 30 427.0409805749292 L 31 427.69585748293235 L 32 428.33384126162855 L 33 428.95451248378225 L 34 429.5574631038857 L 35 430.14229672641886 L 36 430.70862886645 L 37 431.2560872024064 L 38 431.784311820848 L 39 432.2929554530843 L 40 432.7816837034774 L 41 433.25017526928303 L 42 433.69812215188284 L 43 434.12522985927103 L 44 434.53121759966103 L 45 434.9158184660855 L 46 435.2787796118679 L 47 435.61986241685014 L 48 435.93884264426845 L 49 436.2355105881718 L 50 436.5096712112886 L 51 436.7611442732488 L 52 436.98976444907925 L 53 437.1953814378921 L 54 437.3778600616967 L 55 437.53708035426945 L 56 437.6729376400223 L 57 437.7853426028195 L 58 437.8742213446963 L 59 437.9395154344414 L 60 437.98118194601096 L 61 437.99919348674973 L 62 437.99353821539944 L 63 437.96421984988336 L 64 437.9112576648625 L 65 437.8346864790635 L 66 437.7345566323883 L 67 437.610933952819 L 68 437.46389971314096 L 69 437.29355057751206 L 70 437.099998537913 L 71 436.8833708405209 L 72 436.64380990205433 L 73 436.38147321614485 L 74 436.09653324979644 L 75 435.7891773300015 L 76 435.4596075205867 L 77 435.1080404893715 L 78 434.73470736572455 L 79 434.33985358861344 L 80 433.9237387452466 L 81 433.48663640041417 L 82 433.0288339166388 L 83 432.5506322652566 L 84 432.0523458285501 L 85 431.53430219306574 L 86 430.99684193424935 L 87 430.44031839254336 L 88 429.8650974410913 L 89 429.27155724520316 L 90 428.66008801373994 L 91 428.0310917425797 L 92 427.3849819503354 L 93 426.72218340649647 L 94 426.0431318521747 L 95 425.3482737136363 L 96 424.63806580880964 L 97 423.9129750469614 L 98 423.17347812173773 L 99 422.420061197774 L 100 421.6532195910769 L 101 420.873457443391 L 102 420.0812873907628 L 103 419.2772302265201 L 104 418.4618145588892 L 105 417.6355764634738 L 106 416.7990591308249 L 107 415.952812509333 L 108 415.09739294367796 L 109 414.2333628090731 L 110 413.36129014154517 L 111 412.48174826449264 L 112 411.5953154117678 L 113 410.7025743475306 L 114 409.8041119831245 L 115 408.90051899122557 L 116 407.9923894175183 L 117 407.0803202901552 L 118 406.16491122725427 L 119 405.2467640426946 L 120 404.3264823504681 L 121 403.404671167848 L 122 402.4819365176344 L 123 401.5588850297392 L 124 400.6361235423719 L 125 399.71425870308764 L 126 398.79389656996204 L 127 397.8756422131522 L 128 396.9600993171079 L 129 396.0478697836936 L 130 395.13955333648255 L 131 394.2357471264825 L 132 393.33704533955347 L 133 392.44403880577397 L 134 391.557314611014 L 135 390.6774557109696 L 136 389.80504054791214 L 137 388.9406426704056 L 138 388.0848303562407 L 139 387.2381662388337 L 140 386.4012069373373 L 141 385.5745026907039 L 142 384.7585969959446 L 143 383.9540262508196 L 144 383.1613194011967 L 145 382.3809975933083 L 146 381.6135738311359 L 147 380.85955263914855 L 148 380.11942973061446 L 149 379.39369168170674 L 150 378.6828156116152 L 151 377.9872688688756 L 152 377.30750872412295 L 153 376.64398206946925 L 154 375.99712512470535 L 155 375.36736315051843 L 156 374.7551101689146 L 157 374.1607686910298 L 158 373.58472945250867 L 159 373.0273711566248 L 160 372.4890602253107 L 161 371.97015055826324 L 162 371.4709833002802 L 163 370.99188661698275 L 164 370.5331754790711 L 165 370.0951514552541 L 166 369.67810251399055 L 167 369.2823028341708 L 168 368.90801262486457 L 169 368.5554779542526 L 170 368.224930587855 L 171 367.91658783616276 L 172 367.63065241177173 L 173 367.3673122961144 L 174 367.1267406158758 L 175 366.90909552917554 L 176 366.7145201215906 L 177 366.54314231208696 L 178 366.39507476892254 L 179 366.2704148355758 L 180 366.16924446675006 L 181 366.09163017449384 L 182 366.0376229844746 L 183 366.00725840243257 L 184 366.0005563908388 L 185 366.0175213557713 L 186 366.0581421440179 L 187 366.1223920504092 L 188 366.2102288353749 L 189 366.3215947527135 L 190 366.4564165875559 L 191 366.61460570449884 L 192 366.79605810587617 L 193 367.00065450012966 L 194 367.22826038023436 L 195 367.478726112127 L 196 367.75188703307947 L 197 368.0475635599522 L 198 368.36556130725705 L 199 368.70567121495117 L 200 369.0676696858788 L 201 369.45131873276966 L 202 369.8563661346983 L 203 370.2825456029003 L 204 370.729576955838 L 205 371.1971663033987 L 206 371.6850062401061 L 207 372.1927760472163 L 208 372.72014190356714 L 209 373.26675710504065 L 210 373.8322622924956 L 211 374.4162856880194 L 212 375.01844333934486 L 213 375.6383393722703 L 214 376.27556625091773 L 215 376.9297050456575 L 216 377.6003257085236 L 217 378.28698735593855 L 218 378.98923855856174 L 219 379.70661763807095 L 220 380.43865297068163 L 221 381.18486329720486 L 222 381.9447580394397 L 223 382.71783762269206 L 224 383.5035938042083 L 225 384.30151000730734 L 226 385.1110616609915 L 227 385.93171654481324 L 228 386.7629351387712 L 229 387.60417097800416 L 230 388.45487101205185 L 231 389.3144759684445 L 232 390.18242072038333 L 233 391.0581346582697 L 234 391.94104206483865 L 235 392.8305624936508 L 236 393.72611115069276 L 237 394.627099278836 L 238 395.53293454490154 L 239 396.44302142907486 L 240 397.35676161641646 L 241 398.27355439020977 L 242 399.1927970268879 L 243 400.11388519228 L 244 401.0362133389164 L 245 401.95917510413125 L 246 402.8821637087012 L 247 403.80457235575824 L 248 404.7257946297132 L 249 405.6452248949301 L 250 406.562258693886 L 251 407.4762931445579 L 252 408.3867273367728 L 253 409.2929627272618 L 254 410.1944035331581 L 255 411.0904571236805 L 256 411.98053440974394 L 257 412.8640502312427 L 258 413.74042374174917 L 259 414.6090787903784 L 260 415.4694443005639 L 261 416.32095464549906 L 262 417.16305001999444 L 263 417.99517680850875 L 264 418.81678794911005 L 265 419.62734329312855 L 266 420.4263099602645 L 267 421.2131626889178 L 268 421.9873841815084 L 269 422.74846544456165 L 270 423.49590612333355 L 271 424.2292148307575 L 272 424.9479094704945 L 273 425.65151755387643 L 274 426.33957651053197 L 275 427.011633992493 L 276 427.66724817157944 L 277 428.30598802986907 L 278 428.9274336430598 L 279 429.5311764565391 L 280 430.11681955397796 L 281 430.68397791827493 L 282 431.2322786846757 L 283 431.7613613859044 L 284 432.2708781891445 L 285 432.7604941247127 L 286 433.229887306277 L 287 433.67874914247346 L 288 434.10678453978176 L 289 434.5137120965278 L 290 434.8992642878842 L 291 435.2631876417486 L 292 435.6052429053821 L 293 435.9252052027012 L 294 436.22286418211644 L 295 436.4980241548234 L 296 436.7505042234537 L 297 436.98013840100134 L 298 437.1867757199474 L 299 437.37028033150943 L 300 437.53053159495266 L 301 437.6674241569018 L 302 437.7808680206034 L 303 437.87078860509206 L 304 437.93712679422185 L 305 437.97983897553075 L 306 437.9988970689128 L 307 437.9942885450786 L 308 437.9660164337923 L 309 437.9140993218799 L 310 437.8385713410097 L 311 437.7394821452533 L 312 437.61689687844176 L 313 437.47089613133807 L 314 437.30157588865507 L 315 437.1090474659523 L 316 436.89343743645435 L 317 436.65488754783826 L 318 436.3935546290449 L 319 436.10961048717564 L 320 435.80324179454163 L 321 435.47464996594067 L 322 435.12405102624194 L 323 434.7516754683654 L 324 434.35776810174997 L 325 433.942587891409 L 326 433.50640778768025 L 327 433.04951454678115 L 328 432.5722085422875 L 329 432.0748035676604 L 330 431.5576266299499 L 331 431.021017734812 L 332 430.4653296629804 L 333 429.8909277383389 L 334 429.2981895877478 L 335 428.68750489278244 L 336 428.0592751335462 L 337 427.4139133247269 L 338 426.75184374407024 L 339 426.07350165344843 L 340 425.37933301270766 L 341 424.6697941864825 L 342 423.9453516441696 L 343 423.20648165325895 L 344 422.4536699662227 L 345 421.687411501169 L 346 420.90821001646987 L 347 420.11657777957714 L 348 419.3130352302446 L 349 418.4981106383773 L 350 417.67233975673264 L 351 416.83626546870323 L 352 415.9904374314105 L 353 415.13541171434593 L 354 414.27175043379657 L 355 413.4000213832948 L 356 412.52079766033637 L 357 411.6346572896106 L 358 410.74218284299224 L 359 409.8439610565433 L 360 408.94058244477753 L 361 408.0326409124404 L 362 407.12073336406115 L 363 406.2054593115314 L 364 405.287420479971 L 365 404.36722041213767 L 366 403.4454640716427 L 367 402.52275744523143 L 368 401.59970714439237 L 369 400.6769200065543 L 370 399.7550026961361 L 371 398.834561305709 L 372 397.91620095753586 L 373 397.00052540574814 L 374 396.0881366394215 L 375 395.1796344868132 L 376 394.2756162210186 L 377 393.37667616730863 L 378 392.48340531240467 L 379 391.59639091594835 L 380 390.71621612442186 L 381 389.8434595877719 L 382 388.9786950789906 L 383 388.12249111690136 L 384 387.27541059240025 L 385 386.43801039839684 L 386 385.61084106369776 L 387 384.7944463910751 L 388 383.98936309975613 L 389 383.1961204725698 L 390 382.4152400079827 L 391 381.64723507725193 L 392 380.8926105869219 L 393 380.1518626468849 L 394 379.42547824422627 L 395 378.7139349230655 L 396 378.0177004706068 L 397 377.3372326096035 L 398 376.67297869743885 L 399 376.02537543202175 L 400 375.3948485646901 L 401 374.78181262031086 L 402 374.18667062476015 L 403 373.6098138399639 L 404 373.05162150667195 L 405 372.512460595135 L 406 371.992685563849 L 407 371.49263812652487 L 408 371.01264702743674 L 409 370.55302782529714 L 410 370.1140826858002 L 411 369.6961001829702 L 412 369.2993551094453 L 413 368.9241082958218 L 414 368.57060643917714 L 415 368.23908194088494 L 416 367.9297527538281 L 417 367.64282223911107 L 418 367.3784790323647 L 419 367.13689691973235 L 420 366.9182347236183 L 421 366.72263619827396 L 422 366.5502299352897 L 423 366.40112927905557 L 424 366.2754322522457 L 425 366.1732214913758 L 426 366.0945641924754 L 427 366.03951206691164 L 428 366.0081013073929 L 429 366.0003525641747 L 430 366.01627093148363 L 431 366.0558459441683 L 432 366.11905158457967 L 433 366.2058462996751 L 434 366.31617302833706 L 435 366.4499592388864 L 436 366.60711697676624 L 437 366.78754292236613 L 438 366.99111845894674 L 439 367.2177097506216 L 440 367.4671678303446 L 441 367.73932869784426 L 442 368.0340134274426 L 443 368.3510282856847 L 444 368.690164858705 L 445 369.0512001892432 L 446 369.43389692322285 L 447 369.8380034657939 L 448 370.2632541467375 L 449 370.70936939512507 L 450 371.176055923115 L 451 371.663006918768 L 452 372.1699022477537 L 453 372.6964086638145 L 454 373.24218002785096 L 455 373.8068575354828 L 456 374.3900699529356 L 457 374.99143386110063 L 458 375.6105539076036 L 459 376.2470230667203 L 460 376.9004229069658 L 461 377.570323866182 L 462 378.2562855339436 L 463 378.95785694109475 L 464 379.6745768562287 L 465 380.40597408891284 L 466 381.15156779946176 L 467 381.91086781505396 L 468 382.6833749519843 L 469 383.4685813438404 L 470 384.26597077538713 L 471 385.07501902194025 L 472 385.89519419400546 L 473 386.72595708695616 L 474 387.56676153552104 L 475 388.4170547728474 L 476 389.27627779390417 L 477 390.14386572298696 L 478 391.0192481850818 L 479 391.9018496808445 L 480 392.79108996494955 L 481 393.6863844275579 L 482 394.5871444786553 L 483 395.4927779350064 L 484 396.40268940947175 L 485 397.31628070243073 L 486 398.2329511950539 L 487 399.1520982441652 L 488 400.07311757843553 L 489 400.99540369564664 L 490 401.9183502607639 L 491 402.8413505045569 L 492 403.76379762250554 L 493 404.6850851737292 L 494 405.60460747967664 L 495 406.5217600223151 L 496 407.4359398415563 L 497 408.34654593165817 L 498 409.25297963634165 L 499 410.154645042363 L 500 411.05094937128285 L 501 411.9413033691744 L 502 412.8251216940142 L 503 413.7018233005011 L 504 414.5708318220511 L 505 415.4315759497156 L 506 416.2834898077747 L 507 417.12601332575906 L 508 417.95859260665463 L 509 418.78068029104907 L 510 419.5917359169802 L 511 420.39122627525 L 512 421.1786257599699 L 513 421.95341671410824 L 514 422.71508976981136 L 515 423.4631441832754 L 516 424.19708816394837 L 517 424.9164391978462 L 518 425.62072436476984 L 519 426.30948064921574 L 520 426.982255244774 L 521 427.6386058518155 L 522 428.2781009682709 L 523 428.9003201733116 L 524 429.5048544037456 L 525 430.0913062229457 L 526 430.65929008213556 L 527 431.20843257385883 L 528 431.7383726774676 L 529 432.2487619964663 L 530 432.7392649875571 L 531 433.2095591812345 L 532 433.65933539378545 L 533 434.08829793055486 L 534 434.4961647803428 L 535 434.88266780080613 L 536 435.24755289474234 L 537 435.59058017713977 L 538 435.91152413288404 L 539 436.2101737650178 L 540 436.48633273345575 L 541 436.7398194840634 L 542 436.9704673680158 L 543 437.1781247513568 L 544 437.362655114687 L 545 437.52393714291554 L 546 437.66186480501534 L 547 437.77634742373107 L 548 437.8673097351926 L 549 437.9346919383953 L 550 437.97844973451515 L 551 437.99855435603155 L 552 437.99499258564003 L 553 437.9677667649418 L 554 437.9168947929039 L 555 437.84241011409244 L 556 437.7443616966849 L 557 437.6228140002773 L 558 437.4778469335068 L 559 437.3095558015177 L 560 437.1180512433053 L 561 436.9034591589787 L 562 436.6659206269913 L 563 436.4055918113917 L 564 436.1226438591573 L 565 435.81726278767826 L 566 435.4896493624645 L 567 435.140018965157 L 568 434.76860145193075 L 569 434.37564100238086 L 570 433.9613959589928 L 571 433.52613865730103 L 572 433.0701552468487 L 573 432.5937455030654 L 574 432.0972226301868 L 575 431.5809130553463 L 576 431.04515621397286 L 577 430.49030432663767 L 578 429.91672216749487 L 579 429.32478682446964 L 580 428.7148874513506 L 581 428.08742501194985 L 582 427.4428120164992 L 583 426.7814722504547 L 584 426.10384049588953 L 585 425.4103622456562 L 586 424.70149341050853 L 587 423.9777000193736 L 588 423.2394579129722 L 589 422.487252430989 L 590 421.72157809299694 L 591 420.9429382733476 L 592 420.15184487023964 L 593 419.3488179691833 L 594 418.53438550108297 L 595 417.7090828951611 L 596 416.8734527269535 L 597 416.0280443616055 L 598 415.1734135927055 L 599 414.31012227689115 L 600 413.43873796447036 L 601 412.559833526299 L 602 411.6739867771602 L 603 410.7817800958943 L 604 409.8838000425273 L 605 408.9806369726512 L 606 408.07288464930883 L 607 407.1611398526382 L 608 406.2460019875339 L 609 405.3280726895824 L 610 404.4079554295314 L 611 403.486255116552 L 612 402.5635777005557 L 613 401.64052977382727 L 614 400.71771817223475 L 615 399.79574957627995 L 616 398.8752301122507 L 617 397.95676495373755 L 618 397.0409579237769 L 619 396.1284110978817 L 620 395.21972440822157 L 621 394.3154952492115 L 622 393.416318084769 L 623 392.52278405749837 L 624 391.63548060005763 L 625 390.7549910489652 L 626 389.88189426109903 L 627 389.01676423314115 L 628 388.16016972421687 L 629 387.3126738819781 L 630 386.47483387237503 L 631 385.64720051336064 L 632 384.8303179127688 L 633 384.0247231106033 L 634 383.23094572597375 L 635 382.4495076089102 L 636 381.6809224972853 L 637 380.9256956790693 L 638 380.1843236601409 L 639 379.4572938378709 L 640 378.7450841806948 L 641 378.0481629138835 L 642 377.36698821172 L 643 376.7020078962834 L 644 376.05365914303917 L 645 375.4223681934285 L 646 374.80855007464595 L 647 374.21260832678956 L 648 373.63493473756347 L 649 373.075909084706 L 650 372.535898886314 L 651 372.0152591592268 L 652 371.51433218562903 L 653 371.03344728802495 L 654 370.5729206127336 L 655 370.1330549220458 L 656 369.71413939518015 L 657 369.3164494381694 L 658 368.94024650280085 L 659 368.58577791473147 L 660 368.2532767108894 L 661 367.9429614862693 L 662 367.6550362502226 L 663 367.38969029233596 L 664 367.14709805798753 L 665 366.9274190336622 L 666 366.73079764210064 L 667 366.55736314735236 L 668 366.4072295697939 L 669 366.280495611169 L 670 366.1772445896992 L 671 366.0975443853089 L 672 366.0414473949984 L 673 366.00899049839757 L 674 366.00019503351984 L 675 366.01506678273404 L 676 366.0535959689629 L 677 366.115757262111 L 678 366.201509795717 L 679 366.3107971938208 L 680 366.4435476080262 L 681 366.59967376473617 L 682 366.77907302252856 L 683 366.98162743963553 L 684 367.20720385148127 L 685 367.45565395822814 L 686 367.72681442227275 L 687 368.0205069756282 L 688 368.3365385371225 L 689 368.6747013393349 L 690 369.03477306518766 L 691 369.41651699410323 L 692 369.81968215763044 L 693 370.24400350443784 L 694 370.68920207456523 L 695 371.1549851828195 L 696 371.6410466111931 L 697 372.14706681018026 L 698 372.672713108857 L 699 373.2176399335875 L 700 373.78148903521355 L 701 374.36388972457684 L 702 374.96445911621964 L 703 375.5828023801038 L 704 376.21851300118226 L 705 376.87117304665276 L 706 377.5403534407179 L 707 378.22561424667055 L 708 378.9265049561199 L 709 379.64256478516756 L 710 380.3733229773389 L 711 381.11829911307035 L 712 381.8770034255504 L 713 382.6489371227047 L 714 383.4335927151151 L 715 384.23045434965644 L 716 385.0389981486322 L 717 385.85869255418487 L 718 386.6889986777566 L 719 387.52937065436817 L 720 388.3792560014851 L 721 389.2380959822342 L 722 390.1053259727318 L 723 390.98037583328187 L 724 391.8626702832015 L 725 392.751629279025 L 726 393.64666839583964 L 727 394.5471992115021 L 728 395.4526296934825 L 729 396.36236458808196 L 730 397.27580581176824 L 731 398.19235284437127 L 732 399.1114031238808 L 733 400.03235244258667 L 734 400.9545953443007 L 735 401.87752552239914 L 736 402.80053621842495 L 737 403.72302062098646 L 738 404.6443722646911 L 739 405.56398542885165 L 740 406.48125553570276 L 741 407.3955795478663 L 742 408.30635636480395 L 743 409.21298721799644 L 744 410.1148760645894 L 745 411.01142997924796 L 746 411.90205954396095 L 747 412.78617923554 L 748 413.66320781055776 L 749 414.53256868747246 L 750 415.3936903256879 L 751 416.24600660129886 L 752 417.0889571792761 L 753 417.92198788184527 L 754 418.7445510528175 L 755 419.5561059176334 L 756 420.356118938882 L 757 421.1440641670627 L 758 421.91942358635765 L 759 422.6816874551894 L 760 423.43035464133794 L 761 424.1649329513987 L 762 424.88493945436255 L 763 425.5899007991082 L 764 426.2793535255949 L 765 426.9528443695537 L 766 427.6099305604749 L 767 428.2501801126971 L 768 428.87317210940597 L 769 429.47849697935584 L 770 430.0657567661326 L 771 430.63456538978073 L 772 431.1845489006223 L 773 431.71534572510126 L 774 432.2266069034914 L 775 432.7179963193116 L 776 433.18919092029773 L 777 433.63988093078524 L 778 434.0697700553644 L 779 434.47857567367225 L 780 434.8660290261946 L 781 435.2318753909558 L 782 435.5758742509795 L 783 435.8977994524109 L 784 436.19743935319605 L 785 436.4745969622209 L 786 436.7290900688187 L 787 436.96075136255973 L 788 437.1694285432456 L 789 437.35498442103557 L 790 437.5172970066386 L 791 437.65625959151237 L 792 437.77178081801605 L 793 437.8637847394717 L 794 437.932210870093 L 795 437.9770142247507 L 796 437.99816534854665 L 797 437.99565033617836 L 798 437.9694708410809 L 799 437.9196440743396 L 800 437.8462027933751 L 801 437.74919528040783 L 802 437.6286853107161 L 803 437.4847521107083 L 804 437.31749030583774 L 805 437.1270098583929 L 806 436.91343599520593 L 807 436.67690912532487 L 808 436.41758474770506 L 809 436.1356333489803 L 810 435.8312402913803 L 811 435.50460569086874 L 812 435.1559442855817 L 813 434.78548529465337 L 814 434.39347226752125 L 815 433.9801629238105 L 816 433.5458289839022 L 817 433.0907559902972 L 818 432.61524311989325 L 819 432.11960298729804 L 820 431.60416143930826 L 821 431.06925734068943 L 822 430.5152423513973 L 823 429.94248069538736 L 824 429.3513489211645 L 825 428.7422356542301 L 826 428.1155413415897 L 827 427.47167798848824 L 828 426.8110688875475 L 829 426.134148340482 L 830 425.44136137257806 L 831 424.7331634401223 L 832 424.01002013097286 L 833 423.27240685846965 L 834 422.5208085488853 L 835 421.7557193226219 L 836 420.97764216936326 L 837 420.1870886173963 L 838 419.38457839731916 L 839 418.5706391003563 L 840 417.74580583150697 L 841 416.9106208577523 L 842 416.0656332515552 L 843 415.2113985298859 L 844 414.34847828901025 L 845 413.47743983528187 L 846 412.59885581218 L 847 411.7133038238385 L 848 410.8213660553143 L 849 409.9236288898431 L 850 409.02068252333606 L 851 408.11312057636945 L 852 407.201539703923 L 853 406.28653920312314 L 854 405.36872061924953 L 855 404.4486873502634 L 856 403.5270442501181 L 857 402.60439723111176 L 858 401.6813528655455 L 859 400.758517986946 L 860 399.8364992911182 L 861 398.9159029372867 L 862 397.99733414959155 L 863 397.08139681919755 L 864 396.1686931072807 L 865 395.2598230491516 L 866 394.3553841597763 L 867 393.45597104095475 L 868 392.56217499041367 L 869 391.6745836130722 L 870 390.7937804347347 L 871 389.9203445184659 L 872 389.05485008389974 L 873 388.19786612973206 L 874 387.34995605964616 L 875 386.51167731191646 L 876 385.6835809929339 L 877 384.86621151489436 L 878 384.06010623788745 L 879 383.2657951166226 L 880 382.4838003520222 L 881 381.71463604791336 L 882 380.9588078730429 L 883 380.2168127286369 L 884 379.48913842172533 L 885 378.77626334444466 L 886 378.07865615953045 L 887 377.39677549220613 L 888 376.7310696286709 L 889 376.0819762213845 L 890 375.4499220013431 L 891 374.8353224975352 L 892 374.23858176376194 L 893 373.6600921130016 L 894 373.10023385949273 L 895 372.5593750687058 L 896 372.0378713153668 L 897 371.53606544969387 L 898 371.054287371998 L 899 370.59285381579815 L 900 370.1520681395924 L 901 369.73222012742195 L 902 369.33358579835965 L 903 368.95642722504783 L 904 368.6009923614049 L 905 368.26751487961377 L 906 367.95621401649987 L 907 367.6672944293991 L 908 367.4009460616104 L 909 367.15734401752263 L 910 366.936648447496 L 911 366.7390044425749 L 912 366.5645419391016 L 913 366.41337563329256 L 914 366.285604905834 L 915 366.1813137565466 L 916 366.10057074916176 L 917 366.043428966246 L 918 366.0099259743031 L 919 366.0000837990769 L 920 366.0139089110711 L 921 366.05139222129515 L 922 366.11250908723974 L 923 366.1972193290775 L 924 366.3054672560781 L 925 366.43718170322086 L 926 366.5922760779806 L 927 366.77064841725576 L 928 366.9721814544015 L 929 367.19674269632395 L 930 367.44418451058476 L 931 367.7143442224584 L 932 368.0070442218787 L 933 368.32209208020447 L 934 368.6592806767273 L 935 369.0183883348377 L 936 369.39917896776154 L 937 369.80140223376935 L 938 370.2247937007578 L 939 370.66907502009406 L 940 371.1339541096095 L 941 371.61912534562236 L 942 372.1242697638626 L 943 372.6490552691674 L 944 373.19313685380894 L 945 373.75615682431214 L 946 374.33774503661107 L 947 374.9375191393917 L 948 375.55508482545963 L 949 376.1900360909678 L 950 376.84195550233426 L 951 377.51041447067365 L 952 378.19497353356314 L 953 378.8951826439562 L 954 379.6105814660555 L 955 380.34069967794954 L 956 381.0850572808148 L 957 381.8431649144792 L 958 382.61452417914074 L 959 383.3986279630282 L 960 384.19496077579 L 961 385.00299908739055 L 962 385.8222116722933 L 963 386.65205995870167 L 964 387.4919983826307 L 965 388.34147474657476 L 966 389.1999305825369 L 967 390.06680151918016 L 968 390.9415176528602 L 969 391.8235039222948 L 970 392.712180486624 L 971 393.6069631066131 L 972 394.5072635287464 L 973 395.4124898719609 L 974 396.32204701676375 L 975 397.23533699648016 L 976 398.15175939037175 L 977 399.07071171836907 L 978 399.99158983715785 L 979 400.9137883373584 L 980 401.836700941538 L 981 402.7597209027931 L 982 403.6822414036407 L 983 404.6036559549563 L 984 405.5233587946956 L 985 406.4407452861381 L 986 407.3552123153915 L 987 408.26615868789435 L 988 409.1729855236569 L 989 410.0750966509809 L 990 410.9718989983983 L 991 411.8628029845716 L 992 412.7472229059007 L 993 413.6245773215793 L 994 414.49428943584945 L 995 415.3557874772024 L 996 416.20850507427554 L 997 417.0518816282004 L 998 417.8853626811549 L 999 418.70840028087815 L 1000 419.5204533409087 L 1001 420.32098799630927 L 1002 421.109477954643 L 1003 421.88540484197244 L 1004 422.6482585436516 L 1005 423.3975375396891 L 1006 424.1327492344603 L 1007 424.85341028055257 L 1008 425.5590468965308 L 1009 426.2491951784133 L 1010 426.92340140465467 L 1011 427.5812223344343 L 1012 428.22222549905416 L 1013 428.84598948625546 L 1014 429.4521042172657 L 1015 430.0401712163955 L 1016 430.60980387300674 L 1017 431.1606276956807 L 1018 431.6922805584183 L 1019 432.2044129387114 L 1020 432.696688147328 L 1021 433.1687825496605 L 1022 433.6203857784915 L 1023 434.0512009380375 L 1024 434.46094479913586 L 1025 434.84934798544725 L 1026 435.2161551505503 L 1027 435.56112514581343 L 1028 435.884031178932 L 1029 436.1846609630276 L 1030 436.46281685621125 L 1031 436.7183159915178 L 1032 436.950990397128 L 1033 437.16068710679724 L 1034 437.34726826041975 L 1035 437.51061119466124 L 1036 437.65060852360125 L 1037 437.7671682093312 L 1038 437.8602136224627 L 1039 437.92968359250574 L 1040 437.9755324480835 L 1041 437.99773004695834 L 1042 437.99626179584766 L 1043 437.97112866001817 L 1044 437.92234716265125 L 1045 437.84994937398017 L 1046 437.7539828902062 L 1047 437.63451080220767 L 1048 437.4916116540626 L 1049 437.3253793914113 L 1050 437.13592329969435 L 1051 436.9233679323057 L 1052 436.68785302870754 L 1053 436.4295334225621 L 1054 436.14857893994014 L 1055 435.84517428767253 L 1056 435.51951893191944 L 1057 435.1718269670358 L 1058 434.80232697482046 L 1059 434.41126187424 L 1060 433.9988887617277 L 1061 433.5654787421618 L 1062 433.1113167506339 L 1063 432.63670136512496 L 1064 432.14194461021265 L 1065 431.62737175193814 L 1066 431.09332108396745 L 1067 430.5401437051888 L 1068 429.96820328889055 L 1069 429.37787584367305 L 1070 428.76954946625085 L 1071 428.1436240863077 L 1072 427.500511203572 L 1073 426.8406336172866 L 1074 426.1644251482494 L 1075 425.4723303536078 L 1076 424.7648042345956 L 1077 424.0423119374032 L 1078 423.3053284473783 L 1079 422.55433827675796 L 1080 421.7898351461378 L 1081 421.012321659887 L 1082 420.22230897572314 L 1083 419.42031646866354 L 1084 418.60687138957485 L 1085 417.78250851854426 L 1086 416.9477698133011 L 1087 416.1032040529198 L 1088 415.24936647703805 L 1089 414.38681842082764 L 1090 413.5161269459583 L 1091 412.6378644677962 L 1092 411.7526083790833 L 1093 410.8609406703442 L 1094 409.96344754727033 L 1095 409.060719045333 L 1096 408.1533486418785 L 1097 407.2419328659609 L 1098 406.32707090616793 L 1099 405.4093642166987 L 1100 404.4894161219521 L 1101 403.5678314198857 L 1102 402.6452159844053 L 1103 401.722176367048 L 1104 400.7993193982192 L 1105 399.87725178824616 L 1106 398.9565797285112 L 1107 398.0379084929253 L 1108 397.12184204000516 L 1109 396.20898261581533 L 1110 395.29993035803574 L 1111 394.3952829014153 L 1112 393.4956349848714 L 1113 392.6015780604931 L 1114 391.71369990470475 L 1115 390.8325842318464 L 1116 389.95881031042484 L 1117 389.0929525822874 L 1118 388.23558028496865 L 1119 387.38725707745886 L 1120 386.5485406696398 L 1121 385.7199824556316 L 1122 384.902127151292 L 1123 384.0955124361057 L 1124 383.30066859969986 L 1125 382.51811819321784 L 1126 381.7483756857804 L 1127 380.99194712626013 L 1128 380.24932981059186 L 1129 379.5210119548372 L 1130 378.8074723742185 L 1131 378.1091801683332 L 1132 377.4265944127554 L 1133 376.7601638572277 L 1134 376.11032663064157 L 1135 375.47750995299924 L 1136 374.86212985454887 L 1137 374.26459090227496 L 1138 373.6852859339255 L 1139 373.1245957997503 L 1140 372.58288911211963 L 1141 372.06052200318936 L 1142 371.5578378907701 L 1143 371.0751672525552 L 1144 370.6128274088564 L 1145 370.17112231398875 L 1146 369.75034235644335 L 1147 369.35076416797847 L 1148 368.97265044175424 L 1149 368.6162497596315 L 1150 368.28179642874767 L 1151 367.96951032747677 L 1152 367.6795967608761 L 1153 367.4122463257129 L 1154 367.16763478516117 L 1155 366.94592295325054 L 1156 366.74725658914264 L 1157 366.5717663013054 L 1158 366.41956746164755 L 1159 366.29076012967016 L 1160 366.1854289866849 L 1161 366.1036432801421 L 1162 366.0454567781061 L 1163 366.0109077339064 L 1164 366.000018860989 L 1165 366.0127973179839 L 1166 366.04923470399905 L 1167 366.10930706414314 L 1168 366.1929749052741 L 1169 366.30018322196327 L 1170 366.430861532657 L 1171 366.58492392601323 L 1172 366.76226911738195 L 1173 366.96278051539235 L 1174 367.1863262986029 L 1175 367.4327595021643 L 1176 367.70191811443806 L 1177 367.99362518350716 L 1178 368.30768893350887 L 1179 368.64390289071326 L 1180 369.0020460192643 L 1181 369.3818828664947 L 1182 369.7831637177189 L 1183 370.2056247604015 L 1184 370.648988257595 L 1185 371.11296273053125 L 1186 371.597243150247 L 1187 372.1015111381181 L 1188 372.62543517516997 L 1189 373.1686708200267 L 1190 373.7308609353562 L 1191 374.3116359226608 L 1192 374.91061396526214 L 1193 375.5274012793164 L 1194 376.1615923726988 L 1195 376.8127703115844 L 1196 377.4805069945513 L 1197 378.1643634340259 L 1198 378.8638900448848 L 1199 379.5786269400236 L 1200 380.30810423269895 L 1201 381.05184234544436 L 1202 381.80935232535694 L 1203 382.58013616554774 L 1204 383.36368713254484 L 1205 384.1594900994327 L 1206 384.9670218845105 L 1207 385.7857515952453 L 1208 386.6151409772948 L 1209 387.45464476836963 L 1210 388.3037110567033 L 1211 389.1617816438933 L 1212 390.0282924118752 L 1213 390.90267369378904 L 1214 391.78435064849276 L 1215 392.67274363847827 L 1216 393.56726861093983 L 1217 394.46733748174614 L 1218 395.372358522062 L 1219 396.2817367473661 L 1220 397.19487430860994 L 1221 398.1111708852591 L 1222 399.0300240799597 L 1223 399.9508298145702 L 1224 400.8729827272984 L 1225 401.7958765706817 L 1226 402.7189046101504 L 1227 403.64146002291085 L 1228 404.56293629688645 L 1229 405.48272762945487 L 1230 406.40022932571804 L 1231 407.314838196045 L 1232 408.2259529526242 L 1233 409.13297460476593 L 1234 410.03530685269453 L 1235 410.9323564795713 L 1236 411.82353374149096 L 1237 412.7082527551947 L 1238 413.58593188324505 L 1239 414.4559941164097 L 1240 415.3178674530024 L 1241 416.1709852749319 L 1242 417.01478672021136 L 1243 417.8487170516839 L 1244 418.67222802172114 L 1245 419.4847782326558 L 1246 420.2858334927103 L 1247 421.074867167189 L 1248 421.85136052470085 L 1249 422.6148030781879 L 1250 423.36469292053175 L 1251 424.1005370545219 L 1252 424.8218517169632 L 1253 425.5281626967164 L 1254 426.219005646455 L 1255 426.89392638794124 L 1256 427.552481210613 L 1257 428.1942371632923 L 1258 428.8187723388174 L 1259 429.4256761514168 L 1260 430.0145496066378 L 1261 430.5850055636573 L 1262 431.13666898979704 L 1263 431.669177207081 L 1264 432.1821801306682 L 1265 432.675340499009 L 1266 433.14833409556826 L 1267 433.60084996197514 L 1268 434.0325906024541 L 1269 434.4432721794073 L 1270 434.8326247000162 L 1271 435.2003921937424 L 1272 435.546332880609 L 1273 435.8702193301534 L 1274 436.1718386109458 L 1275 436.45099243057615 L 1276 436.7074972660163 L 1277 436.94118448427344 L 1278 437.15190045325335 L 1279 437.33950664276256 L 1280 437.5038797155814 L 1281 437.64491160854925 L 1282 437.7625096036082 L 1283 437.856596388758 L 1284 437.9271101088835 L 1285 437.9740044064192 L 1286 437.9972484518265 L 1287 437.9968269638616 L 1288 437.97274021962164 L 1289 437.9250040543628 L 1290 437.85364985108953 L 1291 437.7587245199229 L 1292 437.6402904672603 L 1293 437.498425554748 L 1294 437.3332230480928 L 1295 437.14479155574685 L 1296 436.9332549575054 L 1297 436.6987523230654 L 1298 436.4414378205966 L 1299 436.1614806153884 L 1300 435.8590647586355 L 1301 435.53438906643794 L 1302 435.1876669890941 L 1303 434.8191264707735 L 1304 434.42900979965924 L 1305 434.0175734486626 L 1306 433.58508790681003 L 1307 433.13183750141735 L 1308 432.6581202111648 L 1309 432.1642474701991 L 1310 431.650543963387 L 1311 431.1173474128606 L 1312 430.56500835598854 L 1313 429.99388991492475 L 1314 429.4043675578813 L 1315 428.7968288522869 L 1316 428.17167320998897 L 1317 427.5293116246706 L 1318 426.87016640165166 L 1319 426.1946708802556 L 1320 425.503269148919 L 1321 424.7964157532382 L 1322 424.0745753971372 L 1323 423.3382226373609 L 1324 422.5878415714875 L 1325 421.82392551967155 L 1326 421.04697670032084 L 1327 420.2575058999264 L 1328 419.4560321372572 L 1329 418.64308232214324 L 1330 417.8191909090727 L 1331 416.98489954582567 L 1332 416.1407567173827 L 1333 415.28731738533446 L 1334 414.42514262303735 L 1335 413.5547992467473 L 1336 412.676859442982 L 1337 411.7919003923482 L 1338 410.9005038900905 L 1339 410.00325596360153 L 1340 409.1007464871544 L 1341 408.19356879410196 L 1342 407.28231928680583 L 1343 406.3675970445438 L 1344 405.4500034296616 L 1345 404.53014169221956 L 1346 403.60861657340195 L 1347 402.68603390794266 L 1348 401.76300022583536 L 1349 400.8401223535829 L 1350 399.9180070152556 L 1351 398.9972604336132 L 1352 398.0784879315596 L 1353 397.16229353418646 L 1354 396.2492795716728 L 1355 395.34004628329546 L 1356 394.4351914228183 L 1357 393.5353098655109 L 1358 392.6409932170643 L 1359 391.7528294246516 L 1360 390.8714023903986 L 1361 389.99729158750864 L 1362 389.1310716793042 L 1363 388.27331214142606 L 1364 387.4245768874471 L 1365 386.5854238981386 L 1366 385.7564048546411 L 1367 384.938064775774 L 1368 384.130941659725 L 1369 383.3355661303576 L 1370 382.55246108836377 L 1371 381.78214136749654 L 1372 381.0251133961033 L 1373 380.2818748641883 L 1374 379.5529143962166 L 1375 378.83871122988097 L 1376 378.1397349010372 L 1377 377.45644493502004 L 1378 376.7892905445382 L 1379 376.13871033435134 L 1380 375.5051320129184 L 1381 374.8889721112124 L 1382 374.29063570888053 L 1383 373.71051616793574 L 1384 373.1489948741486 L 1385 372.6064409863162 L 1386 372.08321119356543 L 1387 371.57964948085817 L 1388 371.09608690284483 L 1389 370.632841366222 L 1390 370.19021742073085 L 1391 369.76850605893907 L 1392 369.3679845249342 L 1393 368.98891613205666 L 1394 368.63155008979 L 1395 368.2961213399247 L 1396 367.98285040210084 L 1397 367.69194322883294 L 1398 367.42359107011123 L 1399 367.1779703476692 L 1400 366.9552425389988 L 1401 366.7555540711916 L 1402 366.57903622467313 L 1403 366.4258050468962 L 1404 366.2959612760478 L 1405 366.1895902748218 L 1406 366.1067619742986 L 1407 366.04753082797095 L 1408 366.01193577594495 L 1409 366.0000002193395 L 1410 366.0117320049019 L 1411 366.04712341984924 L 1412 366.1061511969389 L 1413 366.1887765297653 L 1414 366.29494509827174 L 1415 366.4245871044624 L 1416 366.57761731828884 L 1417 366.75393513368306 L 1418 366.95342463469785 L 1419 367.1759546717137 L 1420 367.4213789476594 L 1421 367.6895361141919 L 1422 367.9802498777708 L 1423 368.2933291155585 L 1424 368.62856800106886 L 1425 368.98574613948387 L 1426 369.3646287125458 L 1427 369.76496663293403 L 1428 370.18649670802046 L 1429 370.6289418129002 L 1430 371.09201107258 L 1431 371.5754000532078 L 1432 372.0787909622145 L 1433 372.60185285724054 L 1434 373.1442418637044 L 1435 373.70560140087633 L 1436 374.2855624163025 L 1437 374.8837436284311 L 1438 375.49975177727526 L 1439 376.1331818829541 L 1440 376.7836175119355 L 1441 377.45063105081204 L 1442 378.1337839874235 L 1443 378.832627199148 L 1444 379.54670124816556 L 1445 380.275536683505 L 1446 381.018654349674 L 1447 381.77556570166706 L 1448 382.5457731261494 L 1449 383.3287702685993 L 1450 384.12404236620057 L 1451 384.9310665862592 L 1452 385.7493123699293 L 1453 386.5782417810144 L 1454 387.41730985962255 L 1455 388.26596498043557 L 1456 389.1236492153636 L 1457 389.9897987003401 L 1458 390.8638440060222 L 1459 391.74521051214714 L 1460 392.6333187853042 L 1461 393.52758495986757 L 1462 394.42742112184686 L 1463 395.3322356953952 L 1464 396.24143383172856 L 1465 397.15441780019313 L 1466 398.07058738123084 L 1467 398.98934026097754 L 1468 399.91007242724197 L 1469 400.832178566597 L 1470 401.7550524623308 L 1471 402.67808739298715 L 1472 403.6006765312424 L 1473 404.5222133428476 L 1474 405.4420919853816 L 1475 406.35970770654626 L 1476 407.2744572417481 L 1477 408.18573921069833 L 1478 409.09295451277785 L 1479 409.9955067208999 L 1480 410.89280247361893 L 1481 411.7842518652194 L 1482 412.6692688335379 L 1483 413.54727154525347 L 1484 414.4176827784013 L 1485 415.2799303018538 L 1486 416.1334472515191 L 1487 416.9776725030137 L 1488 417.812051040559 L 1489 418.6360343218647 L 1490 419.4490806387533 L 1491 420.2506554732946 L 1492 421.04023184921056 L 1493 421.8172906783246 L 1494 422.58132110182225 L 1495 423.33182082610483 L 1496 424.0682964530086 L 1497 424.7902638041793 L 1498 425.4972482393821 L 1499 426.1887849685442 L 1500 426.86441935731824 L 1501 427.5237072259725 L 1502 428.1662151414046 L 1503 428.7915207020935 L 1504 429.39921281579564 L 1505 429.98889196980923 L 1506 430.56017049362316 L 1507 431.11267281378264 L 1508 431.64603570080027 L 1509 432.15990850795345 L 1510 432.6539534018076 L 1511 433.12784558431804 L 1512 433.5812735063595 L 1513 434.01393907254754 L 1514 434.4255578372136 L 1515 434.81585919140775 L 1516 435.18458654080325 L 1517 435.5314974743893 L 1518 435.8563639238374 L 1519 436.15897231344036 L 1520 436.4391237005219 L 1521 436.69663390622713 L 1522 436.93133363660644 L 1523 437.14306859391365 L 1524 437.33169957804563 L 1525 437.4971025780559 L 1526 437.63916885368286 L 1527 437.75780500683817 L 1528 437.8529330430095 L 1529 437.9244904225358 L 1530 437.9724301017228 L 1531 437.9967205637705 L 1532 437.9973458394934 L 1533 437.9743055178188 L 1534 437.92761474605726 L 1535 437.85730421994435 L 1536 437.7634201634603 L 1537 437.6460242984413 L 1538 437.50519380400186 L 1539 437.34102126579535" stroke-linecap="round" stroke-linejoin="round" stroke-miterlimit="10" stroke-width="11"/></g></svg>